<svg id="Capa_1" enable-background="new 0 0 512 512" height="512" viewBox="0 0 512 512" width="512" xmlns="http://www.w3.org/2000/svg"><g><path d="m482.34 96.543-84.362-20 20 417.308 64.362 18.149z" fill="#fb3"/><path d="m236 76.543 20 371.631 161.978 45.677v-397.308z" fill="#198080"/><path d="m74.022 76.543 20 417.308 161.978-45.677v-351.631z" fill="#24b3b3"/><path d="m29.66 96.543v415.457l64.362-18.149v-417.308z" fill="#ffea80"/><path d="m324.945 383.962-25.98 15-15-25.98 7.284-17.783 18.696 2.783z" fill="#d7cfe6"/><path d="m158.532 301.111 71.633-41.358-23.68-20.969-62.953 36.346z" fill="#ece6f2"/><path d="m187.055 383.962 25.98 15 15-25.98-7.284-17.783-18.696 2.783z" fill="#d7cfe6"/><path d="m353.468 301.111-71.633-41.358 23.68-20.969 62.953 36.346z" fill="#d7cfe6"/><path d="m315.246 164.872-32.406 16.302-6.29 47.778-74.495 129.03 25.98 15 77.48-134.198z" fill="#ece6f2"/><path d="m301.836 138.206h30v64.629h-30z" fill="#d7cfe6" transform="matrix(.131 -.991 .991 .131 106.418 462.388)"/><path d="m196.754 164.872 32.406 16.302 6.29 47.778 74.495 129.03-25.98 15-77.48-134.198z" fill="#fff5f5"/><path d="m162.849 155.521h64.629v30h-64.629z" fill="#ece6f2" transform="matrix(.991 -.131 .131 .991 -20.588 26.934)"/><path d="m236 46.543 20 50h226.34v-30z" fill="#ff884d"/><path d="m29.66 66.543v30h226.34v-50z" fill="#fb3"/><path d="m482.34 66.543v-66.543h-226.34l-20 33.272 20 33.271z" fill="#fb3"/><path d="m29.66 0h226.34v66.543h-226.34z" fill="#ffea80"/></g></svg>