<?xml version="1.0" ?><!DOCTYPE svg  PUBLIC '-//W3C//DTD SVG 1.1//EN'  'http://www.w3.org/Graphics/SVG/1.1/DTD/svg11.dtd'><svg height="512px" style="enable-background:new 0 0 512 512;" version="1.1" viewBox="0 0 512 512" width="512px" xml:space="preserve" xmlns="http://www.w3.org/2000/svg" xmlns:xlink="http://www.w3.org/1999/xlink"><g id="_x33_6-simple"><g><g><path d="M84.508,422.365c-35.438-38.668-63.469-88.82-67.111-156.08v-19.618     c1.435-28.411,8.653-54.154,17.719-77.574c11.719-30.356,29.854-59.391,51.268-77.578c0,14.538,0.355,28.411,1.852,37.383     c4.532,27.278,19.683,57.118,38.235,75.69c15,15.074,35.134,25.425,55.922,36.461c41.455,22.073,80.881,41.534,122.105,63.548     c26.512,14.173,53.803,31.671,61.496,59.817c10.914,39.766-12.227,76.672-30.746,96.262     c-17.092,18.033-39.492,30.384-66.188,34.574h-31.703C171.92,487.918,120.086,461.152,84.508,422.365L84.508,422.365z      M242.014,182.196c38.201,20.061,77.662,40.463,116.525,60.735c20.016,10.468,38.236,21.261,52.197,36.453     c25.41,27.634,41.277,63.644,38.201,115.888c6.295-6.102,11.994-14.627,16.764-23.355c13.869-25.425,25.082-57.815,27.975-95.339     c-0.146-1.111,0.184-1.678,0.928-1.885v-37.387C478.197,105.84,388.961,26.888,263.453,16.75h-12.107     c-24.516,4.125-48.436,11.155-62.451,27.125c-9.844,11.185-17.598,31.102-18.643,43.903     C165.836,142.774,205.146,162.778,242.014,182.196L242.014,182.196z M242.014,182.196" style="fill:#2299F8;"/></g></g></g><g id="Layer_1"/></svg>