<?xml version="1.0" encoding="UTF-8" standalone="no"?>
<svg id="Capa_1" enable-background="new 0 0 512 512" height="512" viewBox="0 0 512 512" width="512" xmlns="http://www.w3.org/2000/svg" xmlns:xlink="http://www.w3.org/1999/xlink"><linearGradient id="SVGID_1_" gradientUnits="userSpaceOnUse" x1="278.05" x2="278.05" y1="452" y2="0"><stop offset="0" stop-color="#5558fd"/><stop offset="1" stop-color="#03befd"/></linearGradient><linearGradient id="SVGID_2_" gradientUnits="userSpaceOnUse" x1="226" x2="226" y1="512" y2="32"><stop offset="0" stop-color="#abdafd"/><stop offset=".5028" stop-color="#e8f4ff"/><stop offset="1" stop-color="#e8f4ff"/></linearGradient><g><g><g><path d="m451 122h-15c-3.6-66.599-58.801-122-126.301-122-53.699 0-105.298 19.701-146.698 52.7l-40.501 8.399-62.401 58.801 26.4 40.501c-6.599 19.799-9.898 39.598-10.499 59.7-1.8 61.5 20.7 119.399 63.3 163.499 42.899 44.1 100.2 68.4 161.7 68.4h30c8.401 0 15-6.599 15-15s-6.599-15-15-15c-29.399 0-57.9-12.599-77.701-34.501-20.099-22.2-29.7-50.7-26.699-80.7 2.399-26.999 15.899-51.599 37.5-69l17.7 17.401c16.201 16.5 25.501 39 25.501 61.8 0 6 3.6 11.4 9.3 13.801 5.4 2.399 11.999 1.199 16.199-3.001l21.301-21.299c14.399-14.101 21.899-33.001 21.899-53.101 0-15-4.2-29.101-12.299-41.4h87.299c24.901 0 45-20.099 45-45s-20.099-45-45-45z" fill="url(#SVGID_1_)"/></g></g><g><g><path d="m16 122v23.101c0 5.4 2.999 10.199 7.5 12.9 4.799 2.699 10.499 2.699 15 0 14.7-8.401 33.9-7.2 47.999 2.401 15.287-45.839 41.301-81.292 76.502-107.702-15.901-13.5-36.001-20.7-57.001-20.7-49.501 0-90 40.499-90 90zm315 0c8.284 0 15-6.716 15-15s-6.716-15-15-15-15 6.716-15 15 6.716 15 15 15zm74.542 315c18.377-13.682 30.458-35.38 30.458-60 0-8.291-6.709-15-15-15h-30c-41.367 0-75 33.647-75 75s33.633 75 75 75h30c8.291 0 15-6.709 15-15 0-24.62-12.081-46.318-30.458-60z" fill="url(#SVGID_2_)"/></g></g></g></svg>