<svg id="Layer_1" enable-background="new 0 0 512 512" height="512" viewBox="0 0 512 512" width="512" xmlns="http://www.w3.org/2000/svg"><g><g><circle cx="256" cy="246.126" fill="#f8e000" r="246.126"/></g><path d="m441.796 343.134c-.044-.041-.088-.081-.132-.122-4.199-3.791-11.034-3.127-14.84 1.058-5.338 5.87-11.023 11.354-16.998 16.452-1.463 1.249-3.209 2.13-5.081 2.576-.211.05-.422.1-.633.15-12.868 3.031-21.005-13.337-10.759-21.691 108.414-88.393 51.555-286.031-105.833-286.031-12.084 0-23.854 1.334-35.183 3.844-8.909 2.479-36.12 7.716-66.019 31.678-27.071 21.702-45.817 50.749-54.759 82.688-3.694 13.196-22.532 12.459-25.251-.972-.044-.218-.088-.437-.132-.655-.394-1.972-.318-4.017.231-5.952 22.367-78.83 94.921-136.771 180.787-136.917 5.463-.009 10.231-4.127 10.606-9.578.413-6.021-4.348-11.033-10.28-11.033-65.566 0-124.17 30.372-162.486 77.785-7.194 8.902-21.439 2.303-19.305-8.942.049-.258.098-.516.148-.775 2.018-10.446-10.498-17.358-18.256-10.079-48.065 45.102-78.014 109.282-77.745 180.457.517 136.856 111.489 246.373 248.34 245.166 92.657-.817 173.089-52.834 214.384-129.134 6.074-11.223-5.935-23.647-17.406-18.056-.153.074-.306.149-.458.223-4.33 2.099-9.426 1.145-12.94-2.14z" fill="#ffc305"/><g><g><g><path d="m268.832 433.04h20.61v67.428h-20.61z" fill="#1a396b"/></g></g><g><path d="m440.365 232.572c0 33.54-10.196 64.699-27.658 90.546-29.103 43.078-77.67 56.259-133.57 56.259-89.441 0-149.646-57.364-149.646-146.805 0-75.711 38.935-139.287 109.136-157.022 12.731-3.216 26.061-4.925 39.791-4.925 89.441 0 161.947 72.506 161.947 161.947z" fill="#05cdff"/></g><g><path d="m432.572 358.119c-4.22-3.82-10.736-3.495-14.556.725-35.642 39.377-86.523 61.961-139.598 61.961-103.792 0-188.233-84.441-188.233-188.233 0-2.964.077-5.91.214-8.841h-20.625c-.123 2.933-.2 5.878-.2 8.841 0 115.157 93.687 208.844 208.844 208.844 58.886 0 115.337-25.055 154.879-68.74 3.819-4.22 3.494-10.737-.725-14.557z" fill="#2d56a1"/></g><g><path d="m79.879 242.877c-5.692 0-10.305-4.614-10.305-10.305 0-115.157 93.687-208.844 208.844-208.844 5.691 0 10.305 4.614 10.305 10.305s-4.614 10.305-10.305 10.305c-103.792 0-188.233 84.441-188.233 188.233-.001 5.692-4.614 10.306-10.306 10.306z" fill="#1a396b"/></g><g><path d="m358.508 350.153c-89.441 0-161.947-72.506-161.947-161.947 0-44.33 17.818-84.493 46.674-113.737-72.522 16.067-113.745 80.745-113.745 158.103 0 16.31-10.608 32.058-6.123 46.905 20.111 66.569 81.92 115.042 155.051 115.042 45.111 0 85.908-18.451 115.273-48.211-11.329 2.51-23.099 3.845-35.183 3.845z" fill="#2896ff"/></g><g><path d="m200.997 221.862c27.281-5.844 12.812-36.388 47.423-75.513s61.357-36.927 58.865-64.513c-1.007-11.151-32.04-10.734-68.657-6.28-.313.079-.626.159-.938.24-46.687 12.095-79.111 54.5-79.111 102.729v152.361c.446 6.379 1.47 11.882 4.528 15.384 16.078 16.304 35.585 29.212 57.355 37.558 18.009-26.406 38.202-57.802 39.632-67.788 2.615-18.263-65.881-31.463-84.168-46.954s-2.21-41.38 25.071-47.224z" fill="#82cd64"/></g><g><path d="m400.267 125.905-4.442.787s-39.918-25.176-54.858-4.806c0 0 3.933 251.24 5.89 257.491 26.473-12.363 49.05-31.669 65.383-55.584.345-3.552.569-7.252.644-11.124.877-45.018 14.283-53.377 25.154-52.647 1.524-8.923 2.328-18.092 2.328-27.45-.001-40.857-15.137-78.175-40.099-106.667z" fill="#82cd64"/></g><g><path d="m160.783 232.572c0-60.953 33.676-114.034 83.437-141.666 7.932-4.405 4.064-16.514-4.944-15.428-.216.026-.431.052-.648.078-70.201 17.735-122.158 81.305-122.158 157.015 0 16.311 2.421 32.054 6.907 46.902 50.248 1.391 26.792 51.985 39.729 66.796 16.078 16.304 35.585 29.212 57.355 37.558.038-.056.076-.111.114-.167 6.229-9.136 4.486-21.43-3.869-28.672-34.255-29.693-55.923-73.524-55.923-122.416z" fill="#20b7a1"/></g><g><path d="m363.01 137.096c7.626-15.642-15.455-27.948-23.678-12.612-.373.695-.723 1.431-1.048 2.209-4.803 11.488-11.998 18.344-18.903 22.435-10.827 6.415-16.117 19.185-12.494 31.237l.028.094c1.89 6.286 1.425 13.04-1.307 19.008-1.204 2.631-2.495 5.698-3.652 8.968-3.349 9.466-7.752 18.543-13.143 27.014-7.543 11.853-15.875 30.063-10.396 47.035 9.133 28.285 64.253-5.532 57.612 24.451-4.13 18.645 4.05 50.794 10.826 72.442.394-.184.787-.37 1.18-.557 31.716-15.125 42.524-54.554 23.728-84.241-29.832-47.119-33.377-106.974-8.753-157.483z" fill="#20b7a1"/></g><g><path d="m313.819 478.938h-66.988v33.062h81.283v-18.767c-.001-7.895-6.401-14.295-14.295-14.295z" fill="#2d56a1"/></g><path d="m264.035 478.938h-19.58c-7.895 0-14.295 6.4-14.295 14.295v18.767h19.58v-18.767c0-7.895 6.4-14.295 14.295-14.295z" fill="#1a396b"/></g></g></svg>